HIERARCHY
ROOT Hips
{
  OFFSET 5.84602e-005 68.8428 3.50346
  CHANNELS 6 Xposition Yposition Zposition Zrotation Xrotation Yrotation
  JOINT Spine
  {
    OFFSET 0 8.597 -4.6522
    CHANNELS 3 Zrotation Xrotation Yrotation
    JOINT Spine1
    {
      OFFSET 0 7.8454 0.4098
      CHANNELS 3 Zrotation Xrotation Yrotation
      JOINT Spine2
      {
        OFFSET 0 9.7078 -2.1609
        CHANNELS 3 Zrotation Xrotation Yrotation
        JOINT Neck
        {
          OFFSET 0 21.8761 -0.4549
          CHANNELS 3 Zrotation Xrotation Yrotation
          JOINT Head
          {
            OFFSET 0 12.3537 3.3602
            CHANNELS 3 Zrotation Xrotation Yrotation
            End Site
            {
              OFFSET 0.0001 18.9506 0.5657
            }
          }
        }
        JOINT LeftShoulder
        {
          OFFSET 2.2086 21.1115 7.2329
          CHANNELS 3 Zrotation Xrotation Yrotation
          JOINT LeftArm
          {
            OFFSET 13.1193 3.0282 -4.8998
            CHANNELS 3 Zrotation Xrotation Yrotation
            JOINT LeftForeArm
            {
              OFFSET 27.4081 -0.0973053 -0.2375
              CHANNELS 3 Zrotation Xrotation Yrotation
              JOINT LeftHand
              {
                OFFSET 22.8641 0.0662994 -0.1369
                CHANNELS 3 Zrotation Xrotation Yrotation
                JOINT LeftHandIndex1
                {
                  OFFSET 8.8614 0.775009 2.4612
                  CHANNELS 3 Zrotation Xrotation Yrotation
                  JOINT LeftHandIndex2
                  {
                    OFFSET 3.3146 -0.808304 0.5841
                    CHANNELS 3 Zrotation Xrotation Yrotation
                    JOINT LeftHandIndex3
                    {
                      OFFSET 2.2628 -0.552002 0.3989
                      CHANNELS 3 Zrotation Xrotation Yrotation
                      End Site
                      {
                        OFFSET 1.6102 -0.4807 0.2612
                      }
                    }
                  }
                }
                JOINT LeftHandMiddle1
                {
                  OFFSET 8.9937 0.895004 0.2143
                  CHANNELS 3 Zrotation Xrotation Yrotation
                  JOINT LeftHandMiddle2
                  {
                    OFFSET 4.0984 0.0113983 -0.0242
                    CHANNELS 3 Zrotation Xrotation Yrotation
                    JOINT LeftHandMiddle3
                    {
                      OFFSET 2.2716 0.00689697 -0.0138001
                      CHANNELS 3 Zrotation Xrotation Yrotation
                      End Site
                      {
                        OFFSET 2.0404 -0.1441 0.0027
                      }
                    }
                  }
                }
                JOINT LeftHandRing1
                {
                  OFFSET 8.5234 0.597198 -2.0164
                  CHANNELS 3 Zrotation Xrotation Yrotation
                  JOINT LeftHandRing2
                  {
                    OFFSET 3.7188 -0.188293 -0.2328
                    CHANNELS 3 Zrotation Xrotation Yrotation
                    JOINT LeftHandRing3
                    {
                      OFFSET 2.1191 -0.106598 -0.1332
                      CHANNELS 3 Zrotation Xrotation Yrotation
                      End Site
                      {
                        OFFSET 1.8737 -0.2304 -0.0886
                      }
                    }
                  }
                }
                JOINT LeftHandPinky1
                {
                  OFFSET 7.9094 -0.601089 -3.4825
                  CHANNELS 3 Zrotation Xrotation Yrotation
                  JOINT LeftHandPinky2
                  {
                    OFFSET 2.2874 -0.477005 -0.6314
                    CHANNELS 3 Zrotation Xrotation Yrotation
                    JOINT LeftHandPinky3
                    {
                      OFFSET 1.6774 -0.349396 -0.4633
                      CHANNELS 3 Zrotation Xrotation Yrotation
                      End Site
                      {
                        OFFSET 1.4888 -0.4091 -0.3416
                      }
                    }
                  }
                }
                JOINT LeftHandThumb1
                {
                  OFFSET 1.833 -1.3875 1.3896
                  CHANNELS 3 Zrotation Xrotation Yrotation
                  JOINT LeftHandThumb2
                  {
                    OFFSET 3.4129 -1.121 2.5732
                    CHANNELS 3 Zrotation Xrotation Yrotation
                    JOINT LeftHandThumb3
                    {
                      OFFSET 2.2474 -0.804199 1.6192
                      CHANNELS 3 Zrotation Xrotation Yrotation
                      End Site
                      {
                        OFFSET 1.6527 -0.5689 1.1317
                      }
                    }
                  }
                }
              }
            }
          }
        }
        JOINT RightShoulder
        {
          OFFSET -2.2086 21.1115 7.2329
          CHANNELS 3 Zrotation Xrotation Yrotation
          JOINT RightArm
          {
            OFFSET -13.1216 3.0287 -4.9007
            CHANNELS 3 Zrotation Xrotation Yrotation
            JOINT RightForeArm
            {
              OFFSET -27.4081 -0.0973053 -0.2375
              CHANNELS 3 Zrotation Xrotation Yrotation
              JOINT RightHand
              {
                OFFSET -22.8641 0.0664063 -0.1369
                CHANNELS 3 Zrotation Xrotation Yrotation
                JOINT RightHandIndex1
                {
                  OFFSET -8.8614 0.774994 2.4612
                  CHANNELS 3 Zrotation Xrotation Yrotation
                  JOINT RightHandIndex2
                  {
                    OFFSET -3.3146 -0.808304 0.5841
                    CHANNELS 3 Zrotation Xrotation Yrotation
                    JOINT RightHandIndex3
                    {
                      OFFSET -2.2628 -0.552002 0.3989
                      CHANNELS 3 Zrotation Xrotation Yrotation
                      End Site
                      {
                        OFFSET -1.6102 -0.4807 0.2612
                      }
                    }
                  }
                }
                JOINT RightHandMiddle1
                {
                  OFFSET -8.9937 0.894989 0.2143
                  CHANNELS 3 Zrotation Xrotation Yrotation
                  JOINT RightHandMiddle2
                  {
                    OFFSET -4.0984 0.0113983 -0.0242
                    CHANNELS 3 Zrotation Xrotation Yrotation
                    JOINT RightHandMiddle3
                    {
                      OFFSET -2.2716 0.00691223 -0.0138001
                      CHANNELS 3 Zrotation Xrotation Yrotation
                      End Site
                      {
                        OFFSET -2.0404 -0.1441 0.0027
                      }
                    }
                  }
                }
                JOINT RightHandRing1
                {
                  OFFSET -8.5234 0.597198 -2.0164
                  CHANNELS 3 Zrotation Xrotation Yrotation
                  JOINT RightHandRing2
                  {
                    OFFSET -3.7188 -0.188309 -0.2328
                    CHANNELS 3 Zrotation Xrotation Yrotation
                    JOINT RightHandRing3
                    {
                      OFFSET -2.1191 -0.106598 -0.1332
                      CHANNELS 3 Zrotation Xrotation Yrotation
                      End Site
                      {
                        OFFSET -1.8737 -0.2304 -0.0886
                      }
                    }
                  }
                }
                JOINT RightHandPinky1
                {
                  OFFSET -7.9094 -0.601105 -3.4825
                  CHANNELS 3 Zrotation Xrotation Yrotation
                  JOINT RightHandPinky2
                  {
                    OFFSET -2.2874 -0.477005 -0.6314
                    CHANNELS 3 Zrotation Xrotation Yrotation
                    JOINT RightHandPinky3
                    {
                      OFFSET -1.6774 -0.349396 -0.4633
                      CHANNELS 3 Zrotation Xrotation Yrotation
                      End Site
                      {
                        OFFSET -1.4888 -0.4091 -0.3416
                      }
                    }
                  }
                }
                JOINT RightHandThumb1
                {
                  OFFSET -1.833 -1.38751 1.3896
                  CHANNELS 3 Zrotation Xrotation Yrotation
                  JOINT RightHandThumb2
                  {
                    OFFSET -3.41299 -1.12099 2.5732
                    CHANNELS 3 Zrotation Xrotation Yrotation
                    JOINT RightHandThumb3
                    {
                      OFFSET -2.24741 -0.804108 1.6192
                      CHANNELS 3 Zrotation Xrotation Yrotation
                      End Site
                      {
                        OFFSET -1.6527 -0.5689 1.1317
                      }
                    }
                  }
                }
              }
            }
          }
        }
      }
    }
  }
  JOINT RightUpLeg
  {
    OFFSET -9.1966 3.8861 -0.7581
    CHANNELS 3 Zrotation Xrotation Yrotation
    JOINT RightLeg
    {
      OFFSET -0.7359 -41.0265 0
      CHANNELS 3 Zrotation Xrotation Yrotation
      JOINT RightFoot
      {
        OFFSET 0 -40.2855 0
        CHANNELS 3 Zrotation Xrotation Yrotation
        JOINT RightToeBase
        {
          OFFSET 0 -5.6122 11.7359
          CHANNELS 3 Zrotation Xrotation Yrotation
          End Site
          {
            OFFSET 0 0 7.8731
          }
        }
      }
    }
  }
  JOINT LeftUpLeg
  {
    OFFSET 9.1965 3.8864 -0.7581
    CHANNELS 3 Zrotation Xrotation Yrotation
    JOINT LeftLeg
    {
      OFFSET 0.7359 -41.0268 0
      CHANNELS 3 Zrotation Xrotation Yrotation
      JOINT LeftFoot
      {
        OFFSET 0 -40.2855 0
        CHANNELS 3 Zrotation Xrotation Yrotation
        JOINT LeftToeBase
        {
          OFFSET 0 -5.6122 11.7359
          CHANNELS 3 Zrotation Xrotation Yrotation
          End Site
          {
            OFFSET 0 0 7.8731
          }
        }
      }
    }
  }
}
MOTION
Frames:	4
Frame Time:	0.0333333
5.84602e-005 68.8428 3.50346 0 0 -0 0 0 -0 0 0 -0 0 0 -0 0 0 -0 0 0 -0 0 0 -0 0 0 -0 0 0 -0 0 0 -0 0 0 -0 0 0 -0 0 0 -0 0 0 -0 -0.0146107 -8.87603e-005 -2.63497e-007 2.99804e-018 -2.42657e-020 -1.42182e-022 0 0 -0 -0.0187562 -0.001176 5.858e-005 5.06224e-018 3.88251e-019 1.21329e-020 0 0 -0 -0.012269 -0.00324817 0.000675346 -1.74678e-018 3.88251e-019 -0 0 0 -0 0 0 -0 0 0 -0 0 0 -0 0 0 -0 0 0 -0 0 0 -0 0 0 -0 0 0 -0 0 0 -0 0 0 -0 0.0149955 -9.10982e-005 2.64101e-007 -9.69331e-018 1.21329e-020 -4.7394e-023 0 0 -0 0.0189956 -0.00119102 -5.96516e-005 -5.41541e-019 0 2.42657e-020 0 0 -0 0.0122698 -0.00324857 -0.000673756 -2.00796e-019 0 -1.94126e-019 0 0 -0 0 0 -0 0 0 -0 3.39842 1.33031 -0.0637918 -5.65207e-008 0.834868 -0.000436188 -3.39935 -2.16518 -0.0642563 -8.89002e-024 -1.18485e-023 -1.48106e-024 -3.39844 1.35642 0.0640283 -3.18788e-007 0.782166 -0.000588827 3.39931 -2.13858 0.0634662 1.1399e-023 0 -0 
-0.529765 65.5936 0.804347 0 2.99911 -0 -0.394978 0.814608 3.05903 -0.832998 1.60701 6.1245 -0.832998 1.60702 6.12451 13.9971 6.55134e-006 -4.15794e-005 7.07024e-007 7.76471e-008 1.74517e-006 26.2497 11.1117 -74.8024 -38.466 -14.5307 -12.5497 -56.6918 -41.2859 -79.5798 -29.052 29.8209 11.8569 -6.74732e-007 4.78436e-007 6.74306e-007 4.31556e-006 6.34083e-008 4.31829e-006 2.96746e-006 -5.42419e-007 1.34998e-006 -6.74732e-007 4.78436e-007 6.74306e-007 -0.0146353 -8.71131e-005 2.59028e-006 2.96766e-006 -5.4259e-007 1.3499e-006 -6.74732e-007 4.78436e-007 6.74306e-007 -0.0187069 -0.00117381 6.47818e-005 4.22728e-006 -5.29871e-007 2.60211e-006 -6.74732e-007 4.78436e-007 6.74306e-007 -0.012299 -0.00325274 0.000678606 2.96766e-006 -5.42538e-007 1.34982e-006 -6.74732e-007 4.78436e-007 6.74306e-007 4.31556e-006 6.34083e-008 4.31829e-006 2.96746e-006 -5.42419e-007 1.34998e-006 -1.23995 -18.2153 6.80978 76.8564 6.77053 19.796 -12.3108 -3.83253 40.5359 66.7217 4.93722 -15.7711 -1.07911e-006 -5.59782e-007 1.13873e-006 1.07912e-006 5.59782e-007 -1.13873e-006 -1.07911e-006 -5.59782e-007 1.13872e-006 -1.07911e-006 -5.59782e-007 1.13873e-006 0.0149972 -9.46306e-005 -2.07606e-007 -1.07906e-006 -5.59633e-007 1.1388e-006 -1.07911e-006 -5.59782e-007 1.13873e-006 0.0190177 -0.00118709 -4.953e-005 -4.6387e-007 4.69296e-008 4.45122e-007 -1.07911e-006 -5.59782e-007 1.13873e-006 0.012271 -0.00325487 -0.000679074 -1.07904e-006 -5.59677e-007 1.13881e-006 -1.07911e-006 -5.59782e-007 1.13873e-006 1.07912e-006 5.59782e-007 -1.13873e-006 -1.07911e-006 -5.59782e-007 1.13872e-006 -17.0764 -17.9327 -11.4335 2.30058 20.8849 -0.565003 19.4295 -3.36756 -7.60172 8.77764e-009 -5.25106e-008 3.59144e-009 7.57052 -25.5312 14.1026 1.00059 40.1255 -0.608489 -10.9813 -16.4165 3.40429 3.47873e-015 9.93923e-016 -9.54166e-015 
-0.529023 65.3362 1.27367 0 1.94763 -0 -0.367565 1.03485 3.05966 -0.790052 2.04855 6.12739 -0.790052 2.04855 6.12739 14.0797 -0.2038 -0.24385 0.0142991 -0.16567 -0.118043 26.2496 11.1118 -74.8024 -38.466 -14.5307 -12.5497 -56.6918 -41.2859 -79.5798 -29.0634 29.8203 11.8518 -4.04731e-007 2.86983e-007 4.04752e-007 -4.72186e-007 3.34813e-007 4.72211e-007 -8.76917e-007 6.21796e-007 8.76963e-007 -4.04731e-007 2.86983e-007 4.04752e-007 -0.0145885 -9.4548e-005 2.44188e-006 -8.76918e-007 6.21684e-007 8.77043e-007 -4.04731e-007 2.86983e-007 4.04752e-007 -0.018801 -0.00118014 6.39813e-005 -8.7691e-007 6.21652e-007 8.77074e-007 -4.04731e-007 2.86983e-007 4.04752e-007 -0.0123069 -0.00325709 0.000680998 -8.7689e-007 6.21707e-007 8.77055e-007 -4.04731e-007 2.86983e-007 4.04752e-007 -4.72186e-007 3.34813e-007 4.72211e-007 -8.76917e-007 6.21796e-007 8.76963e-007 -0.87798 -18.5551 7.42131 76.3129 6.52729 19.7936 -12.4673 -3.96595 40.3326 67.0001 4.62019 -15.7438 -1.07889e-006 -5.59937e-007 1.13856e-006 -1.07889e-006 -5.59937e-007 1.13856e-006 -1.07889e-006 -5.59937e-007 1.13856e-006 -1.07889e-006 -5.59937e-007 1.13856e-006 0.0150148 -9.07157e-005 1.8209e-007 -1.07884e-006 -5.59788e-007 1.13864e-006 -1.07889e-006 -5.59937e-007 1.13856e-006 0.0189963 -0.00118627 -5.99457e-005 -1.07881e-006 -5.59753e-007 1.13867e-006 -1.07889e-006 -5.59937e-007 1.13856e-006 0.012272 -0.00324977 -0.000675921 -1.07881e-006 -5.59832e-007 1.13865e-006 -1.07889e-006 -5.59937e-007 1.13856e-006 -1.07889e-006 -5.59937e-007 1.13856e-006 -1.07889e-006 -5.59937e-007 1.13856e-006 -17.1868 -17.3165 -11.4636 2.10178 22.247 -0.494553 19.5885 -4.15273 -6.98615 3.48649e-008 -4.38402e-008 1.69114e-006 7.59158 -24.6209 14.0754 1.22816 40.9974 -0.750967 -11.1687 -17.1139 3.14664 1.68108e-006 5.47972e-008 -3.36204e-006 
-0.528323 65.0813 1.7421 0 0.894726 -0 -0.340083 1.25537 3.06004 -0.746995 2.49076 6.12964 -0.746995 2.49076 6.12964 14.1617 -0.407987 -0.487591 0.028259 -0.331415 -0.236079 26.2496 11.1118 -74.8023 -38.466 -14.5307 -12.5497 -56.6918 -41.2859 -79.5798 -29.0749 29.8198 11.8467 -1.80812e-006 3.69549e-007 -7.05872e-007 -1.01155e-006 7.17265e-007 1.0123e-006 -6.74369e-007 4.78177e-007 6.74866e-007 -1.80812e-006 3.69549e-007 -7.05872e-007 -0.0146182 -9.61575e-005 4.52808e-006 -6.74369e-007 4.78091e-007 6.74928e-007 -1.80812e-006 3.69549e-007 -7.05872e-007 -0.0187962 -0.0011753 5.43198e-005 -6.74363e-007 4.78067e-007 6.74952e-007 -1.80812e-006 3.69549e-007 -7.05872e-007 -0.0122686 -0.00324987 0.000684952 -6.74348e-007 4.78109e-007 6.74937e-007 -1.80812e-006 3.69549e-007 -7.05872e-007 -1.01155e-006 7.17265e-007 1.0123e-006 -6.74369e-007 4.78177e-007 6.74866e-007 -0.511271 -18.8914 8.03663 75.7694 6.28398 19.7887 -12.6244 -4.09881 40.1289 67.2786 4.30324 -15.7149 -1.07869e-006 -5.60079e-007 1.13841e-006 1.19459e-007 -3.65232e-007 4.4342e-006 -1.07869e-006 -5.60079e-007 1.13841e-006 -1.07869e-006 -5.60079e-007 1.13841e-006 0.0150051 -9.44343e-005 1.15021e-005 -1.07864e-006 -5.5993e-007 1.13849e-006 -1.07869e-006 -5.60079e-007 1.13841e-006 0.0190233 -0.00118861 -5.17154e-005 -1.07861e-006 -5.59894e-007 1.13852e-006 -1.07869e-006 -5.60079e-007 1.13841e-006 0.0123055 -0.00325268 -0.000669213 -1.07861e-006 -5.59974e-007 1.1385e-006 -1.07869e-006 -5.60079e-007 1.13841e-006 1.19459e-007 -3.65232e-007 4.4342e-006 -1.07869e-006 -5.60079e-007 1.13841e-006 -17.2963 -16.6949 -11.4917 1.89953 23.6005 -0.419425 19.755 -4.9315 -6.36815 -8.7581e-009 5.25187e-008 -3.51947e-009 7.6135 -23.7087 14.0485 1.46166 41.8678 -0.899824 -11.3597 -17.81 2.88563 -8.75871e-009 -5.2514e-008 -3.58777e-009 
